<svg xmlns="http://www.w3.org/2000/svg" viewBox="0 0 78.8 118.22"><defs><style>.cls-1{fill:#3c00ce;}</style></defs><title>Homemaker logo blueAsset 12</title><g id="Layer_2" data-name="Layer 2"><g id="front_interface" data-name="front interface"><path class="cls-1" d="M37.86,91.19l0-.1a.68.68,0,0,0,0-.14s0-.07,0-.08l-.08.35S37.86,91.21,37.86,91.19Z"/><path class="cls-1" d="M45.18,70.8l0,0v0h0l0,.11Z"/><polygon class="cls-1" points="57.02 69.19 57.01 69.19 57.02 69.21 57.02 69.19"/><path class="cls-1" d="M32.93,45.83a12.73,12.73,0,0,0-1-3.2l-.16-.28a8.2,8.2,0,0,0-.61-.86.05.05,0,0,0,0,0l-.09-.08a2.29,2.29,0,0,0-.54-.41l-.76-.39a.11.11,0,0,1-.05.09l-.14.39a9.67,9.67,0,0,0-.5,2.05l0,.22a7.33,7.33,0,0,0-.12,1q-.12,1.35-.12,2.7c0,1.08,0,2.16.12,3.23a29.51,29.51,0,0,0,.34,3.11l0,.13a39.42,39.42,0,0,0,.93,4,18.25,18.25,0,0,0,.72,2l0,0a1.08,1.08,0,0,1,.12.22.34.34,0,0,0,.12.18.06.06,0,0,0,0,0,6.12,6.12,0,0,0,.37-.57,2.9,2.9,0,0,0,.28-.51,14.21,14.21,0,0,0,1-3.55.64.64,0,0,0,0-.2v0a31.1,31.1,0,0,0,.37-4.79A33.84,33.84,0,0,0,33,46.15Z"/><path class="cls-1" d="M32.64,38a.52.52,0,0,1-.06.22l.08-.21Z"/><path class="cls-1" d="M31.35,79.52l-.6.36a14.88,14.88,0,0,0-1.48.88,4.44,4.44,0,0,0-.62.61,4.09,4.09,0,0,1-.39.44,6,6,0,0,0-.54.58l-.24.32a4.3,4.3,0,0,0-.5.91l-.09.24a5.09,5.09,0,0,0-.19.77l0,.22v.05l0,0v.58a4.31,4.31,0,0,0,.05.69l0,.17a6.52,6.52,0,0,0,.53,1.75c.12.24.25.47.4.71l.16.26.19.19.09.09.1.1s.06,0,.07.06a2,2,0,0,0,.51.25l.1,0H29a2.53,2.53,0,0,0,.65-.14,2.75,2.75,0,0,0,.34-.2,1,1,0,0,1,.21-.15l.06,0h0a5.74,5.74,0,0,0,.73-.75v0h0v0a5.3,5.3,0,0,0,.53-.92,1.23,1.23,0,0,0,.2-.44l.2-.61.2-1a.22.22,0,0,1,0-.12l.05-.48c.22-2.22.33-4.25.33-6.07h0A12.3,12.3,0,0,0,31.35,79.52Z"/><polygon class="cls-1" points="67.9 40.35 67.88 40.35 67.9 40.37 67.9 40.35"/><path class="cls-1" d="M67,49.26a6.14,6.14,0,0,0,1.87-2.44,5.32,5.32,0,0,0,.32-1l.06-.27a7.94,7.94,0,0,0,.08-1.07,6.88,6.88,0,0,0-.52-2.65l-.16-.42-.08-.14c-.11-.18-.23-.35-.35-.51l-.12-.15a.1.1,0,0,0,0-.05l-.2-.17-.12-.07H67.6a1.92,1.92,0,0,0-.48.19l-.22.15-.08.09a3.67,3.67,0,0,0-.43.37v0h0a6.6,6.6,0,0,0-.84,1.24l-.2.46a6.35,6.35,0,0,0-.47,1.63l-.1.66a46,46,0,0,0-.38,5.46A6.8,6.8,0,0,0,65.75,50,13,13,0,0,0,67,49.26Z"/><path class="cls-1" d="M68.18,76.67l0-.07a8.94,8.94,0,0,0,.52-.88c.13-.33.25-.66.35-1a7.66,7.66,0,0,0,.24-1.13c0-.17,0-.33,0-.46s0-.27,0-.39l0-.68v-.19l-.07-.36a3.46,3.46,0,0,0-.26-.89s0-.05,0-.06L68.66,70l-.21-.24-.1-.08a1.71,1.71,0,0,0-.35-.2,1.23,1.23,0,0,0-.4-.12H67l-.18,0-.19,0a.77.77,0,0,0-.23.06h-.06l0,0v1c0,.93,0,1.86,0,2.8l0,3.66,0,.73h.33a1.85,1.85,0,0,0,.55-.16l.07,0c.13-.07.26-.14.38-.22l.08-.07A3.15,3.15,0,0,0,68.18,76.67Z"/><path class="cls-1" d="M57.64,70.23l-.07-.14c-.09-.18-.18-.35-.28-.51l-.1-.15a.1.1,0,0,0,0-.05L57,69.21l-.1-.07h-.12a1.31,1.31,0,0,0-.4.19l-.18.15-.07.08a4.17,4.17,0,0,0-.34.38h0v0a7,7,0,0,0-.7,1.24l-.16.46a7.11,7.11,0,0,0-.39,1.63l-.08.66c-.2,1.91-.3,3.73-.32,5.46a5,5,0,0,0,1.13-.63,8.28,8.28,0,0,0,1-.69,6.07,6.07,0,0,0,1.55-2.45,5.12,5.12,0,0,0,.26-1l.05-.28a7.65,7.65,0,0,0,.07-1.06,8.13,8.13,0,0,0-.43-2.65Z"/><path class="cls-1" d="M78.8,37.64,51.52,9.5,40.39,0,12.87,24.33,0,37,1.5,57.69l1,42.42L52.21,99l25,1.78-.47-11,1.91-36.08Zm-56.67,44q-.21,4-.43,5.65c-.14,1.44-.23,2.35-.27,2.71l-.07.46a2,2,0,0,1-.59,1.48,1.78,1.78,0,0,1-1.28.61,3,3,0,0,1-1.14-.36,1.83,1.83,0,0,1-.87-1.65,4.63,4.63,0,0,1,.1-.78,3.17,3.17,0,0,0,.06-.44l0-.12a3,3,0,0,0,0-.42l.39-4.43c.28-2.79.43-5.41.43-7.85,0-.73,0-1.54-.1-2.41a3.49,3.49,0,0,0-.07-.69,5.64,5.64,0,0,0-.23-1.21v-.07l0,0a0,0,0,0,1,0,0l0,.06a3.09,3.09,0,0,0-.16.5A16.52,16.52,0,0,0,17.15,76q-.09.48-.27,2.28c-.22,2.56-.33,5.6-.33,9.1V89.1A2,2,0,0,1,16,90.45,1.73,1.73,0,0,1,14.7,91a1.65,1.65,0,0,1-1.3-.55,2.26,2.26,0,0,1-.56-1.35c-.13-1.43-.2-2.87-.2-4.3,0-.62,0-1.23,0-1.84.08-1.94.12-3.86.12-5.75a43.92,43.92,0,0,0-.2-4.52.52.52,0,0,1,0-.14,1.21,1.21,0,0,0-.05-.31l0-.22a11.32,11.32,0,0,0-.36-1.61,4.83,4.83,0,0,0-.67.86,4,4,0,0,0-.31.64h0a18.27,18.27,0,0,0-.95,4l0,.07-.11,1.15C10,78.49,9.9,80,9.9,81.62A53.09,53.09,0,0,0,10.17,87l.08.78.05.3a14.13,14.13,0,0,0,.47,2.26,2.94,2.94,0,0,1,.05.51v.34a1.67,1.67,0,0,1,0,.37,1.42,1.42,0,0,1-.65,1.19,1.35,1.35,0,0,1-.7.2l-.36,0c-.29,0-.64-.36-1-1A2.73,2.73,0,0,1,8,91.68a.36.36,0,0,0-.09-.12,4.89,4.89,0,0,1-.4-1.17.48.48,0,0,0,0-.18,38.69,38.69,0,0,1-.94-8.87,45,45,0,0,1,.59-7.6,12.17,12.17,0,0,1,2-5.13,4.34,4.34,0,0,1,3.43-2.12c1.4,0,2.39.91,3,2.72A3.66,3.66,0,0,1,18,67.73h.28a2.75,2.75,0,0,1,2,.79,5.08,5.08,0,0,1,1.25,2,17,17,0,0,1,.73,5v.12c0,.71,0,1.42,0,2.14C22.24,79,22.21,80.29,22.13,81.59Zm-.6-17.75a2.57,2.57,0,0,1-.72.11,2.46,2.46,0,0,1-1-.21,2.5,2.5,0,0,1-1.09-1.14,7.22,7.22,0,0,1-.54-1.49,33.42,33.42,0,0,1-1-8.27l0-1.73-.39,0a16.49,16.49,0,0,0-2.91.25L10.43,52c.07.91.19,1.81.34,2.72v.11l0,0,.16,1a34.05,34.05,0,0,0,.78,3.48,4.59,4.59,0,0,1,.35,1.56,2.06,2.06,0,0,1-.27,1,1.66,1.66,0,0,1-1.51.78,2.41,2.41,0,0,1-.94-.2,2.15,2.15,0,0,1-1-1.15,7.72,7.72,0,0,1-.44-1.52l-.08-.37c-.22-.94-.4-1.88-.56-2.83a67.25,67.25,0,0,1-1-11.33c0-.89,0-1.8.06-2.71a22.35,22.35,0,0,1,.89-6,1.35,1.35,0,0,1,1.42-.92,2,2,0,0,1,.92.25,1,1,0,0,1,.49,1c-.09,1.78-.14,3.56-.14,5.35q0,3.48.24,6.93a18.2,18.2,0,0,1,7.05-1.47c.1-4,.39-6.3.84-6.75a1.34,1.34,0,0,1,1-.37,1.64,1.64,0,0,1,.86.25,1.06,1.06,0,0,1,.53.69,42.68,42.68,0,0,1,.66,7.5v.65a72.68,72.68,0,0,0,.46,7.9.48.48,0,0,1,0,.2l0,0a15.47,15.47,0,0,0,.73,3,2.92,2.92,0,0,1,.34,1.37A1.57,1.57,0,0,1,21.53,63.84ZM35.46,81.69a29.24,29.24,0,0,1-.35,4.24,8.61,8.61,0,0,1-3.17,5.85,4.83,4.83,0,0,1-2.87,1.06A4.23,4.23,0,0,1,26,91.53a7,7,0,0,1-1.67-3,10.3,10.3,0,0,1-.44-3c0-.3,0-.85.11-1.65a6.2,6.2,0,0,1,1.27-2.82,6.12,6.12,0,0,1,2.3-2.06l.53-.31a14.52,14.52,0,0,1,3.75-1.51l.22,0a.77.77,0,0,1,.43.13,22.92,22.92,0,0,0-1-7L31.31,70l-.21-.38L31,69.45l-.07-.06a.43.43,0,0,1-.09-.1l-.1-.05-.06,0-.07,0h0l-.12,0h-.06l-.09,0a1.87,1.87,0,0,0-.3.17,2.1,2.1,0,0,0-.36.37l-.08.12c-.18.28-.28.44-.3.49a.83.83,0,0,0-.07.13s-.05.1-.07.16,0,.08-.05.08a9.89,9.89,0,0,0-.4,1.33l0,.4a2.31,2.31,0,0,0-.07.46v0c0,.39-.05.77-.05,1.14a1,1,0,0,1-.41.86,1.27,1.27,0,0,1-.76.26l-.31,0c-.17,0-.35-.19-.54-.51a6.76,6.76,0,0,1-.6-2.72,6.64,6.64,0,0,1,.88-3.24,6,6,0,0,1,2-2.13,3.09,3.09,0,0,1,1.69-.53,3.44,3.44,0,0,1,1.12.2,4.86,4.86,0,0,1,2.54,2.6,13.91,13.91,0,0,1,1,3.68,45.13,45.13,0,0,1,.45,6.36C35.55,79.84,35.52,80.76,35.46,81.69Zm1.69-26.33A12,12,0,0,1,33.83,63a4.07,4.07,0,0,1-2.68,1,3.77,3.77,0,0,1-.88-.1q-2.81-.87-4.05-5a27.38,27.38,0,0,1-.78-3.28,43.24,43.24,0,0,1-.73-7.87A33.9,33.9,0,0,1,25,43.52c.36-2.92,1.37-5,3-6.1a4,4,0,0,1,2-.53,2.77,2.77,0,0,1,1.51.44l-.14-.11.22.11,0,0a.22.22,0,0,0,.1.08l.15.08.13.08s.06,0,.06,0l-.26-.15a.57.57,0,0,1,.18.12,6.13,6.13,0,0,1,3.44,2.88q2.1,3.73,2.09,9.94a30.35,30.35,0,0,1-.36,4.65Zm12,35.8a2,2,0,0,1-.88.78,1.66,1.66,0,0,1-.67.15,1.51,1.51,0,0,1-.5-.09,4.26,4.26,0,0,1-1.72-1.17,19.18,19.18,0,0,1-3.11-4.61L41.14,84c0,.18,0,.35,0,.52l.05,1.16q.12,2.23.27,4.47a1,1,0,0,0,0,.19,1.87,1.87,0,0,1,0,.32v0s0,0,0-.12a.58.58,0,0,0,0,.19,3.68,3.68,0,0,1,.06.66,1.51,1.51,0,0,1-.25.82,2.48,2.48,0,0,1-.66.67,1.84,1.84,0,0,1-.93.27c-1.41,0-2.11-1.18-2.11-3.53,0-.26,0-.5,0-.73q-.4-6.42-.41-12.29c0-1.24,0-2.47,0-3.7a40.65,40.65,0,0,1,.53-6.33,1.34,1.34,0,0,1,.65-.85,1.41,1.41,0,0,1,.68-.18,1.64,1.64,0,0,1,.37,0,1.46,1.46,0,0,1,1,1.36,47.26,47.26,0,0,1,.32,5.19c0,.32,0,.65,0,1l.08,3.63L41,76.6c.83-1.12,1.26-1.68,1.28-1.69l.27-.36v0l0,0h0l1-1.33.46-.64a13,13,0,0,0,1.08-1.73s0,0,0,0v0s0,0,0,0a.73.73,0,0,1,0-.09C45.58,69.54,46.18,69,47,69a1.52,1.52,0,0,1,1.4.81,2.23,2.23,0,0,1,.28,1,4.32,4.32,0,0,1-.68,2,29.37,29.37,0,0,1-3.34,4.41l-.72.85-1.51,1.85a34.22,34.22,0,0,1,2.58,3.92q.38.63.54.93A26.86,26.86,0,0,0,47,87.05l.07.09a7.81,7.81,0,0,0,1.18,1.25s0,0,0,0l.07,0a1.68,1.68,0,0,1,.5.44,1.93,1.93,0,0,1,.53,1.31A2.19,2.19,0,0,1,49.17,91.16ZM48,61.61a2.05,2.05,0,0,1-.68-1.34A39,39,0,0,1,47.05,56q0-.91.06-1.83c.1-2,.14-3.87.14-5.75A36,36,0,0,0,47,43.85a.52.52,0,0,1,0-.14.86.86,0,0,0-.06-.3l0-.22a8.66,8.66,0,0,0-.44-1.62,5.55,5.55,0,0,0-.81.86,5.79,5.79,0,0,0-.38.64h0a15.46,15.46,0,0,0-1.14,4l0,.07L44,48.34a42.15,42.15,0,0,0-.22,4.45,45.55,45.55,0,0,0,.32,5.34l.1.78.06.3a12.66,12.66,0,0,0,.57,2.26,2.22,2.22,0,0,1,.06.51l0,.34a1.67,1.67,0,0,1,0,.37,1.36,1.36,0,0,1-.78,1.19,2,2,0,0,1-.85.2l-.44,0c-.35,0-.77-.36-1.25-1a1.37,1.37,0,0,1-.21-.24.56.56,0,0,0-.11-.11,4.61,4.61,0,0,1-.49-1.17.6.6,0,0,0-.06-.19,32.36,32.36,0,0,1-1.14-8.87,36.82,36.82,0,0,1,.72-7.6,10.88,10.88,0,0,1,2.42-5.12,5.51,5.51,0,0,1,4.16-2.12,3.7,3.7,0,0,1,3.6,2.71,4.7,4.7,0,0,1,3.06-1.48h.35a3.73,3.73,0,0,1,2.36.79,5,5,0,0,1,1.52,2,14.43,14.43,0,0,1,.88,5v.12c0,.71,0,1.43,0,2.14,0,1.29,0,2.58-.15,3.88-.16,2.69-.33,4.58-.52,5.65-.16,1.45-.27,2.35-.32,2.71l-.08.46a1.85,1.85,0,0,1-.73,1.49,2.36,2.36,0,0,1-1.55.6A4.23,4.23,0,0,1,54,63.3a1.76,1.76,0,0,1-1.06-1.64,3.7,3.7,0,0,1,.12-.78,3.24,3.24,0,0,0,.08-.44l0-.12a2.15,2.15,0,0,0,0-.43l.46-4.42a63.5,63.5,0,0,0,.53-7.86c0-.73,0-1.53-.12-2.41a4.15,4.15,0,0,0-.08-.69,4.58,4.58,0,0,0-.29-1.21v-.06l0,0a0,0,0,0,1,0,0l0,.06a4.55,4.55,0,0,0-.2.51,14.65,14.65,0,0,0-.88,3.35q-.1.48-.33,2.28c-.26,2.56-.4,5.6-.4,9.11l0,1.73a1.79,1.79,0,0,1-.69,1.34,2.35,2.35,0,0,1-1.56.56A2.21,2.21,0,0,1,48,61.61ZM60.9,74.5A7.74,7.74,0,0,1,60,77.42a6.9,6.9,0,0,1-2.36,2.49,7.58,7.58,0,0,1-3.19,1.24l-.21,0h-.14c0,1.25.12,2.49.25,3.73a18.33,18.33,0,0,0,.8,3.64l0,0,0,.08.07.12a.61.61,0,0,0,.05.11v0a2,2,0,0,0,.27.42l0,.07.18.19.08,0,.07,0,.08,0,.2,0a3.26,3.26,0,0,0,.4-.24,3,3,0,0,0,.43-.48,2.48,2.48,0,0,0,.32-.5,2,2,0,0,1,.17-.36l0,.05a5.66,5.66,0,0,0,.2-.58l.07-.25a5.49,5.49,0,0,0,.18-.78.49.49,0,0,1,0-.14v-.1l0-.25,0-.51c0-.21,0-.46,0-.77a1.05,1.05,0,0,1,.42-.84,1.27,1.27,0,0,1,.76-.26l.31,0c.17,0,.35.19.54.51a6,6,0,0,1,.38,4.38A7.26,7.26,0,0,1,59,91.3a4.37,4.37,0,0,1-2.67,1.45l-.31,0a3.25,3.25,0,0,1-2.68-1.38,7.56,7.56,0,0,1-1.42-3,35.56,35.56,0,0,1-.88-7.9c0-1.92.08-3.84.26-5.75a17.43,17.43,0,0,1,.58-3.61,10,10,0,0,1,1.41-2.93,4.94,4.94,0,0,1,2.5-1.92,4.09,4.09,0,0,1,1-.14A3.16,3.16,0,0,1,59,67a5,5,0,0,1,1.46,2.57,13.3,13.3,0,0,1,.49,3.63C60.92,73.34,60.92,73.77,60.9,74.5Zm-.2-22.87A50.24,50.24,0,0,1,61,45.88a14.42,14.42,0,0,1,.7-3.61,9.72,9.72,0,0,1,1.7-2.93,5.42,5.42,0,0,1,4.26-2.06,4.37,4.37,0,0,1,2.59.91A4.94,4.94,0,0,1,72,40.76a11.23,11.23,0,0,1,.6,3.63c0,.11,0,.54,0,1.27a6.72,6.72,0,0,1-1.08,2.92,7.7,7.7,0,0,1-2.85,2.49,10.41,10.41,0,0,1-3.87,1.24l-.26,0h-.16c0,1.25.14,2.5.3,3.73a15.68,15.68,0,0,0,1,3.65h0a.35.35,0,0,0,0,.08,1.05,1.05,0,0,1,.08.13l.06.1s0,0,0,0a2.4,2.4,0,0,0,.32.43l.06.06.22.19.09,0a.19.19,0,0,1,.09,0h.1l.25,0,.48-.24A5.81,5.81,0,0,0,68,60.1a2.33,2.33,0,0,0,.38-.51,3.1,3.1,0,0,1,.21-.36l0,.05q.14-.28.24-.57l.08-.26a3.8,3.8,0,0,0,.22-.78.41.41,0,0,1,0-.14v-.1l0-.25,0-.51a5.44,5.44,0,0,0,0-.76,1,1,0,0,1,.5-.85,1.76,1.76,0,0,1,.93-.26l.37,0c.21,0,.43.19.66.52a5,5,0,0,1,.46,4.37,7.05,7.05,0,0,1-1.82,2.74,5.71,5.71,0,0,1-3.23,1.45l-.39,0a4.27,4.27,0,0,1-3.24-1.37,7.29,7.29,0,0,1-1.73-3A29.91,29.91,0,0,1,60.7,51.63Zm9.16,35.88a24.51,24.51,0,0,0-1.94-1.75Q67,85,66.12,84.2c0,1.22,0,2.16,0,2.82v.4c0,1,0,1.93.1,2.89a2.81,2.81,0,0,1,0,.49,1.87,1.87,0,0,1-.09.56l-.06.34a1.59,1.59,0,0,1-.4.69,1,1,0,0,0,.16-.22,1.08,1.08,0,0,1-.18.24,1.76,1.76,0,0,1-.3.24h0a1.52,1.52,0,0,1-.78.21,1.61,1.61,0,0,1-1.46-1,4,4,0,0,1-.46-1.9V90c-.09-1.72-.14-3.44-.14-5.17,0-1.48,0-3,.1-4.45l0-1.79c.05-1.85.12-3.69.22-5.53,0-1.2.1-2.09.17-2.67l.21-1.56a1.23,1.23,0,0,1,0-.19l0-.2.15-.35-.08.18v0l.13-.32A1.21,1.21,0,0,1,64.79,67l.2,0a4.91,4.91,0,0,1,2.61-.76,4.45,4.45,0,0,1,3.31,1.39,7.94,7.94,0,0,1,1.87,5.44,10,10,0,0,1-.51,3.19,8,8,0,0,1-2.81,4,6.14,6.14,0,0,1-1.66.83h0l.61.46a49.35,49.35,0,0,1,4,3.27A1.72,1.72,0,0,1,73,86.14v.42a1.52,1.52,0,0,1-.54.94,1.69,1.69,0,0,1-1.27.55A1.83,1.83,0,0,1,69.86,87.51ZM73.58,94a1.63,1.63,0,0,1-2-1.3c-.14-.88,1.91-2.3,2.61-.79A1.48,1.48,0,0,1,73.58,94Z"/><path class="cls-1" d="M8.25,105.16A5,5,0,0,0,5,106.31a3.54,3.54,0,0,0-1.36,2.77v5.23A3.54,3.54,0,0,0,5,117.08a5,5,0,0,0,3.29,1.14,5,5,0,0,0,3.29-1.14,3.51,3.51,0,0,0,1.36-2.77v-5.23a3.5,3.5,0,0,0-1.35-2.77A5,5,0,0,0,8.25,105.16Zm3.1,9.15a2.32,2.32,0,0,1-.9,1.85,3.25,3.25,0,0,1-2.2.76,3.27,3.27,0,0,1-2.2-.76,2.32,2.32,0,0,1-.9-1.85v-5.23a2.32,2.32,0,0,1,.9-1.85,3.27,3.27,0,0,1,2.2-.76,3.25,3.25,0,0,1,2.2.76,2.32,2.32,0,0,1,.9,1.85Z"/><path class="cls-1" d="M26.64,105.82q0-.66-.78-.66a.77.77,0,0,0-.64.29l-4,5.06-4-5.06a.77.77,0,0,0-.65-.29c-.51,0-.77.22-.77.66a.55.55,0,0,0,.13.36l4.35,5.52-4.35,5.51a.55.55,0,0,0-.13.36c0,.44.26.65.77.65a.77.77,0,0,0,.65-.28l4-5.07,4,5.07a.76.76,0,0,0,.64.28c.52,0,.78-.21.78-.65a.61.61,0,0,0-.13-.36l-4.36-5.51,4.36-5.52A.61.61,0,0,0,26.64,105.82Z"/><path class="cls-1" d="M36.89,106.47c.51,0,.77-.22.77-.65s-.26-.66-.77-.66h-6.2q-.78,0-.78.66v11.75c0,.44.26.65.78.65s.77-.21.77-.65V111.7h5.43c.51,0,.77-.22.77-.66s-.26-.65-.77-.65H31.46v-3.92Z"/><path class="cls-1" d="M45.07,105.16a5,5,0,0,0-3.29,1.15,3.51,3.51,0,0,0-1.36,2.77v5.23a3.51,3.51,0,0,0,1.36,2.77,5.32,5.32,0,0,0,6.58,0,3.51,3.51,0,0,0,1.36-2.77v-5.23a3.48,3.48,0,0,0-1.36-2.77A4.94,4.94,0,0,0,45.07,105.16Zm3.1,9.15a2.32,2.32,0,0,1-.9,1.85,3.56,3.56,0,0,1-4.4,0,2.32,2.32,0,0,1-.9-1.85v-5.23a2.32,2.32,0,0,1,.9-1.85,3.56,3.56,0,0,1,4.4,0,2.32,2.32,0,0,1,.9,1.85Z"/><path class="cls-1" d="M62.88,109.08a3.51,3.51,0,0,0-1.36-2.77,4.94,4.94,0,0,0-3.29-1.15H54.35c-.51,0-.77.22-.77.66v11.75c0,.44.26.65.77.65s.78-.21.78-.65V113h3.38l2.89,4.87a.74.74,0,0,0,.7.36.81.81,0,0,0,.54-.19.53.53,0,0,0,.14-.75l-2.7-4.56A3.6,3.6,0,0,0,62.88,109.08Zm-2.45,1.86a3.32,3.32,0,0,1-2.2.76h-3.1v-5.23h3.1a3.27,3.27,0,0,1,2.2.76,2.36,2.36,0,0,1,0,3.71Z"/><path class="cls-1" d="M72,105.16H67.32c-.52,0-.77.22-.77.66v11.75c0,.44.25.65.77.65H72a4.08,4.08,0,0,0,2.74-1A2.91,2.91,0,0,0,75.84,115v-6.53a2.91,2.91,0,0,0-1.12-2.32A4.1,4.1,0,0,0,72,105.16ZM74.3,115a1.73,1.73,0,0,1-.69,1.38,2.42,2.42,0,0,1-1.64.58H68.1V106.47H72a2.46,2.46,0,0,1,1.64.57,1.76,1.76,0,0,1,.69,1.39Z"/></g></g></svg>